# xmcd
#
# Track frame offsets:
#	150
#	10373
#	26846
#	40685
#	56849
#	73663
#	96528
#	100352
#	117624
#	135326
#	155192
#	168033
#	170945
#	193960
#	198087
#	222389
#	225072
#	247797
#
# Disc length: 3331 seconds
#
# Revision: 0
# Processed by: cddbd v1.5.2PL0 Copyright (c) Steve Scherf et al.
# Submitted via: EZCDAudioConverter 1.3.4.1
#
DISCID=020d0112
DTITLE=Morstice - Deathography 1992-1995
DYEAR=2011
DGENRE=Death Metal
TTITLE0=As My Suffering Grows
TTITLE1=Apparitions
TTITLE2=Morbid Ceremonies
TTITLE3=In Memoriam To The Dead
TTITLE4=Shrouded In Misery
TTITLE5=Graven Images
TTITLE6=The Forest Of Belial (Outro)
TTITLE7=The Dormancy Of Dreams
TTITLE8=Licentious Congress
TTITLE9=Reflections Remain
TTITLE10=Your Beautiful Corpse
TTITLE11=Prologue, The Awakening Of Dreams
TTITLE12=Land Of Bleak Horizons
TTITLE13=Darkened Desires
TTITLE14=Ascending From The Inferno
TTITLE15=A Requiem To Mortality
TTITLE16=Born From Darkness
TTITLE17=Epilogue, Non Omnis Moriar
EXTD=
EXTT0=
EXTT1=
EXTT2=
EXTT3=
EXTT4=
EXTT5=
EXTT6=
EXTT7=
EXTT8=
EXTT9=
EXTT10=
EXTT11=
EXTT12=
EXTT13=
EXTT14=
EXTT15=
EXTT16=
EXTT17=
PLAYORDER=
